<?xml version="1.0" encoding="utf-8"?>
<!-- Generator: Adobe Illustrator 27.0.0, SVG Export Plug-In . SVG Version: 6.00 Build 0)  -->
<svg version="1.1" id="Layer_1" xmlns="http://www.w3.org/2000/svg" xmlns:xlink="http://www.w3.org/1999/xlink" x="0px" y="0px"
	 viewBox="0 0 2000 2000" style="enable-background:new 0 0 2000 2000;" xml:space="preserve">
<style type="text/css">
	.st0{fill:url(#SVGID_1_);}
	.st1{fill:#FFFFFF;}
	.st2{fill:url(#SVGID_00000078015582691743737210000013248215321832848271_);}
	.st3{fill:url(#SVGID_00000043421077311917338530000009271793520204991908_);}
	.st4{fill:url(#SVGID_00000132086042382922887040000017448968877177976713_);}
	.st5{fill:url(#SVGID_00000177451586748913045770000010464052718204209584_);}
	.st6{fill:url(#SVGID_00000123412355766511036670000010909121168514082194_);}
	.st7{fill:url(#SVGID_00000155848456010683362890000012318579706127237265_);}
</style>
<linearGradient id="SVGID_1_" gradientUnits="userSpaceOnUse" x1="2017.9292" y1="-20.8543" x2="33.2955" y2="1969.4824">
	<stop  offset="0" style="stop-color:#FFCA34"/>
	<stop  offset="0.4944" style="stop-color:#EB2F91"/>
	<stop  offset="1" style="stop-color:#1150E8"/>
</linearGradient>
<rect x="0" class="st0" width="2000" height="2000"/>
<g>
	<g>
		<path class="st1" d="M1185.07,999.76v338.81H967.2v89.11h211.51l94.99-94.99v-57.29h57.29l94.5-94.5V999.76H1185.07z
			 M1336.36,1186.79h-62.67v-98.41h62.67V1186.79z"/>
		<path class="st1" d="M1336.36,724.59l-62.67-63.16l-0.49-0.49l-88.13-88.13l-0.49-0.49H814.92l-88.62,88.62v63.65h-63.65
			l-88.13,88.13v374.06l151.78,151.29v0.49h0.49l88.13,89.11h0.49V813.21h610.06L1336.36,724.59z M726.3,1212.74l-26.44-25.95
			l-36.72-36.72V813.21h63.16V1212.74z M815.41,724.59v-63.65h332.45l37.21,37.21l25.95,26.44H815.41z"/>
		<polygon class="st1" points="1184.93,1186.67 1184.93,1275.4 966.96,1275.4 966.96,1427.47 878.22,1427.47 878.22,1186.67 		"/>
		
			<linearGradient id="SVGID_00000176759286891913522790000005999962115991448479_" gradientUnits="userSpaceOnUse" x1="883.5699" y1="616.6309" x2="701.2588" y2="616.6309">
			<stop  offset="0" style="stop-color:#FFFFFF;stop-opacity:0"/>
			<stop  offset="1" style="stop-color:#000000"/>
		</linearGradient>
		
			<rect x="815.41" y="572.32" style="fill:url(#SVGID_00000176759286891913522790000005999962115991448479_);" width="69.36" height="88.62"/>
		
			<linearGradient id="SVGID_00000014620112850183811910000003401514746329062847_" gradientUnits="userSpaceOnUse" x1="883.5699" y1="768.9003" x2="701.2588" y2="768.9003">
			<stop  offset="0" style="stop-color:#FFFFFF;stop-opacity:0"/>
			<stop  offset="1" style="stop-color:#000000"/>
		</linearGradient>
		
			<rect x="815.41" y="724.59" style="fill:url(#SVGID_00000014620112850183811910000003401514746329062847_);" width="69.36" height="88.62"/>
		
			<linearGradient id="SVGID_00000120528086712672004480000015906132038844092329_" gradientUnits="userSpaceOnUse" x1="1341.8485" y1="1231.0967" x2="1159.5374" y2="1231.0967">
			<stop  offset="0" style="stop-color:#FFFFFF;stop-opacity:0"/>
			<stop  offset="0.2326" style="stop-color:#BEBEBE;stop-opacity:0.2326"/>
			<stop  offset="0.6118" style="stop-color:#595959;stop-opacity:0.6118"/>
			<stop  offset="0.8759" style="stop-color:#191919;stop-opacity:0.8759"/>
			<stop  offset="1" style="stop-color:#000000"/>
		</linearGradient>
		<polygon style="fill:url(#SVGID_00000120528086712672004480000015906132038844092329_);" points="1273.69,1275.41 
			1273.69,1186.79 1343.05,1186.79 1330.98,1275.41 		"/>
		
			<linearGradient id="SVGID_00000065073625716098418730000008487051941312745650_" gradientUnits="userSpaceOnUse" x1="458.4235" y1="619.3969" x2="276.1125" y2="619.3969" gradientTransform="matrix(-1 0 0 -1 1575.1956 1850.3719)">
			<stop  offset="0" style="stop-color:#FFFFFF;stop-opacity:0"/>
			<stop  offset="0.4033" style="stop-color:#9B9B9B;stop-opacity:0.4033"/>
			<stop  offset="1" style="stop-color:#000000"/>
		</linearGradient>
		<polygon style="fill:url(#SVGID_00000065073625716098418730000008487051941312745650_);" points="1184.93,1186.67 
			1184.93,1275.29 1115.57,1275.29 1127.64,1186.67 		"/>
		
			<linearGradient id="SVGID_00000129205814739627163220000006712976294147529882_" gradientUnits="userSpaceOnUse" x1="882.6224" y1="1054.7323" x2="700.3113" y2="1054.7323" gradientTransform="matrix(-1 0 0 -1 1540.7709 1823.6327)">
			<stop  offset="0" style="stop-color:#FFFFFF;stop-opacity:0"/>
			<stop  offset="1" style="stop-color:#000000"/>
		</linearGradient>
		<polygon style="fill:url(#SVGID_00000129205814739627163220000006712976294147529882_);" points="726.3,724.59 726.3,813.21 
			656.94,813.21 667.37,724.59 		"/>
		
			<linearGradient id="SVGID_00000125597162228668564930000013164536403466792067_" gradientUnits="userSpaceOnUse" x1="615.8931" y1="1216.9369" x2="912.3051" y2="1319.8892">
			<stop  offset="0" style="stop-color:#FFFFFF;stop-opacity:0"/>
			<stop  offset="1" style="stop-color:#000000"/>
		</linearGradient>
		<polygon style="fill:url(#SVGID_00000125597162228668564930000013164536403466792067_);" points="726.3,1212.74 726.3,1338.57 
			574.52,1186.79 663.14,1150.07 		"/>
	</g>
</g>
</svg>
