<svg width="412" height="435" viewBox="0 0 412 435" fill="none" xmlns="http://www.w3.org/2000/svg">
<path d="M124.406 3.78711L160.206 39.7215C173.631 52.9605 180.791 70.9278 180.791 90.7864C180.791 109.699 187.951 127.667 200.481 140.906L204.956 145.634L246.125 4.73267" fill="#C5FF5C"/>
<path d="M2.68359 129.554L51.9082 127.662C69.8081 126.717 87.7079 134.282 100.238 147.521C112.768 160.76 129.773 167.379 147.673 167.379H153.937L87.708 37.8262" fill="#C5FF5C"/>
<path d="M2.68501 309.228L35.7997 271.403C48.3296 257.218 65.3345 248.707 83.2344 248.707C101.134 248.707 117.244 240.196 129.774 226.957L134.249 222.229L0 181.566" fill="#C5FF5C"/>
<path d="M124.405 434.053L121.72 382.042C120.825 363.129 127.09 344.216 139.62 330.032C151.255 316.793 158.415 297.88 157.52 279.912V273.293L35.8008 346.108" fill="#C5FF5C"/>
<path d="M294.455 430.271L257.76 396.228C244.335 383.935 236.28 365.967 235.385 346.109C234.49 327.196 226.435 310.174 213.906 296.935L209.431 292.207L173.631 434.999" fill="#C5FF5C"/>
<path d="M410.798 298.823L361.573 302.606C343.673 304.497 325.773 297.878 312.348 284.638C298.924 272.345 281.919 265.726 264.019 266.671H257.754L329.353 393.388" fill="#C5FF5C"/>
<path d="M402.745 120.098L371.421 159.815C359.786 173.999 342.781 183.456 324.881 184.401C306.981 185.347 290.871 193.858 279.236 208.043L275.656 212.771L411.695 246.814" fill="#C5FF5C"/>
<path d="M276.552 0L281.027 52.0104C282.816 70.9233 277.447 89.8363 264.917 104.967C253.282 119.151 247.912 137.118 248.807 156.031L249.702 162.651L367.841 84.1624" fill="#C5FF5C"/>
</svg>
