<svg width="20" height="21" viewBox="0 0 20 21" fill="none" xmlns="http://www.w3.org/2000/svg">
<path d="M9.99999 0.852753C4.69791 0.852753 0.399994 5.15067 0.399994 10.4527C0.399994 15.7548 4.69791 20.0527 9.99999 20.0527C15.3021 20.0527 19.6 15.7548 19.6 10.4527C19.6 5.15067 15.3021 0.852753 9.99999 0.852753ZM12.88 11.4127H10.96V13.3327C10.96 13.8627 10.5299 14.2927 9.99999 14.2927C9.47007 14.2927 9.03999 13.8627 9.03999 13.3327V11.4127H7.11999C6.59007 11.4127 6.15999 10.9827 6.15999 10.4527C6.15999 9.92281 6.59007 9.49273 7.11999 9.49273H9.03999V7.57275C9.03999 7.04283 9.47007 6.61275 9.99999 6.61275C10.5299 6.61275 10.96 7.04283 10.96 7.57275V9.49273H12.88C13.4099 9.49273 13.84 9.92281 13.84 10.4527C13.84 10.9827 13.4099 11.4127 12.88 11.4127Z" fill="#003E2A"/>
</svg>
